<svg fill="#000000" xmlns="http://www.w3.org/2000/svg"  viewBox="0 0 100 100" width="100px" height="100px"><path d="M69.307,17.961h-39c-7.168,0-13,5.832-13,13v39c0,7.168,5.832,13,13,13h39c7.168,0,13-5.832,13-13v-39C82.307,23.792,76.476,17.961,69.307,17.961z M80.307,69.961c0,6.065-4.935,11-11,11h-39c-6.065,0-11-4.935-11-11v-39c0-6.065,4.935-11,11-11h39c6.065,0,11,4.935,11,11V69.961z"/><path d="M76.807 47.961c-.276 0-.5.224-.5.5v18.663c0 5.424-4.413 9.837-9.837 9.837H33.144c-5.424 0-9.837-4.413-9.837-9.837V33.798c0-5.424 4.413-9.837 9.837-9.837h33.663c.276 0 .5-.224.5-.5s-.224-.5-.5-.5H33.144c-5.976 0-10.837 4.861-10.837 10.837v33.326c0 5.976 4.861 10.837 10.837 10.837H66.47c5.976 0 10.837-4.861 10.837-10.837V48.461C77.307 48.184 77.083 47.961 76.807 47.961zM76.807 40.961c-.276 0-.5.224-.5.5v4c0 .276.224.5.5.5s.5-.224.5-.5v-4C77.307 41.184 77.083 40.961 76.807 40.961zM76.307 37.461v2c0 .276.224.5.5.5s.5-.224.5-.5v-2c0-.276-.224-.5-.5-.5S76.307 37.184 76.307 37.461z"/><path d="M48.291 40.957c.565.235 1.184.354 1.838.354 1.306 0 2.422-.434 3.318-1.29.901-.863 1.358-1.903 1.358-3.093 0-1.194-.468-2.229-1.39-3.077-.911-.836-2.016-1.26-3.286-1.26-1.267 0-2.378.415-3.305 1.232-.943.833-1.422 1.878-1.422 3.105 0 .617.133 1.2.395 1.732.254.519.597.979 1.02 1.368C47.237 40.414 47.733 40.726 48.291 40.957zM46.403 36.929c0-.941.354-1.712 1.084-2.356.748-.661 1.612-.981 2.643-.981 1.026 0 1.879.326 2.609.997.718.66 1.067 1.426 1.067 2.341 0 .919-.343 1.694-1.049 2.37-.713.682-1.573 1.013-2.627 1.013-.522 0-1.012-.093-1.456-.278-.45-.187-.847-.436-1.18-.741-.331-.304-.6-.664-.799-1.072C46.502 37.826 46.403 37.391 46.403 36.929zM42.758 64.419c-.276 0-.5.224-.5.5v2.573c0 .276.224.5.5.5h15.008c.276 0 .5-.224.5-.5v-2.573c0-.276-.224-.5-.5-.5-1.727 0-2.835-.245-3.294-.727-.19-.2-.271-.448-.254-.781 0-.008 0-.016 0-.024V44.513c0-.276-.224-.5-.5-.5H42.758c-.276 0-.5.224-.5.5v2.574c0 .276.224.5.5.5 3.633 0 3.633 1.21 3.633 1.608v13.725C46.391 63.329 46.391 64.419 42.758 64.419zM43.258 46.595v-1.582h9.959v17.863c-.027.603.151 1.109.53 1.506.618.649 1.742.979 3.519 1.03v1.58H43.258v-1.577c1.428-.031 4.133-.294 4.133-2.496V49.195C47.391 47.56 46.001 46.687 43.258 46.595z"/></svg>